# xmcd
#
# Track frame offsets: 
#        183
#        13400
#        28813
#        43643
#        65843
#        85958
#        101593
#        118278
#        132408
#        147583
#        165123
#        181233
#
# Disc length: 2662 seconds
#
# Revision: 2
# Processed by: cddbd v1.5.2PL0 Copyright (c) Steve Scherf et al.
# Submitted via: ExactAudioCopyFreeDBPlugin 1.0
#
DISCID=ae0a640c
DTITLE=Brownie McGhee - Blues Is Truth
DYEAR=1996
DGENRE=Blues
TTITLE0=The Blues Had a Baby
TTITLE1=I'm Going To Keep On Loving
TTITLE2=Walk On
TTITLE3=Rainy Day
TTITLE4=Christina
TTITLE5=Don't Dog Your Woman
TTITLE6=Mean And Evil
TTITLE7=Wine Sporty Orty
TTITLE8=Blues Is Truth
TTITLE9=Bunkhouse
TTITLE10=Key To The Highway
TTITLE11=Blues On Parade
EXTD=
EXTT0=
EXTT1=
EXTT2=
EXTT3=
EXTT4=
EXTT5=
EXTT6=
EXTT7=
EXTT8=
EXTT9=
EXTT10=
EXTT11=
PLAYORDER=
